{"title":"Jatt Airways (2013) DVDscr - Xvid - [1CD] Tea IcTv - Punjabi","uid":8886490,"size":729124872,"categoryP":"video","categoryS":"movies","magnet":"?xt=urn:btih:3bb9bc54d00639b1c943964f31d7b380d468561e&amp;dn=Jatt+Airways+%282013%29+DVDscr+-+Xvid+-+%5B1CD%5D+Tea+IcTv+-+Punjabi&amp;tr=udp%3A%2F%2Ftracker.openbittorrent.com%3A80&amp;tr=udp%3A%2F%2Fopen.demonii.com%3A1337&amp;tr=udp%3A%2F%2Ftracker.coppersurfer.tk%3A6969&amp;tr=udp%3A%2F%2Fexodus.desync.com%3A6969","seeders":1,"leechers":0,"uploader":"SJonam","files":1,"time":1378475128,"description":" &lt;a href=&quot;http://s18.postimg.org/q1xcnecvd/9999999999.jpg&quot; rel=&quot;nofollow&quot; target=&quot;_NEW&quot;&gt;http://s18.postimg.org/q1xcnecvd/9999999999.jpg&lt;/a&gt; &lt;a href=&quot;\nhttp://i.imgur.com/lJOgAo2.png&quot; rel=&quot;nofollow&quot; target=&quot;_NEW&quot;&gt;\nhttp://i.imgur.com/lJOgAo2.png&lt;/a&gt; &lt;a href=&quot;\nhttp://s15.postimg.org/o2tvvep3v/jatt_airways_poster_1.jpg&quot; rel=&quot;nofollow&quot; target=&quot;_NEW&quot;&gt;\nhttp://s15.postimg.org/o2tvvep3v/jatt_airways_poster_1.jpg&lt;/a&gt; &lt;a href=&quot;\nhttp://desibbrg.org/images/96164308766559579491.png&quot; rel=&quot;nofollow&quot; target=&quot;_NEW&quot;&gt;\nhttp://desibbrg.org/images/96164308766559579491.png&lt;/a&gt; &lt;a href=&quot;\nhttp://desibbrg.org/images/90814684484762648674.png&quot; rel=&quot;nofollow&quot; target=&quot;_NEW&quot;&gt;\nhttp://desibbrg.org/images/90814684484762648674.png&lt;/a&gt; &lt;a href=&quot;\nhttp://desibbrg.org/images/29527318799159729665.png&quot; rel=&quot;nofollow&quot; target=&quot;_NEW&quot;&gt;\nhttp://desibbrg.org/images/29527318799159729665.png&lt;/a&gt; &lt;a href=&quot;\nhttp://desibbrg.org/images/64057681321754267266.png&quot; rel=&quot;nofollow&quot; target=&quot;_NEW&quot;&gt;\nhttp://desibbrg.org/images/64057681321754267266.png&lt;/a&gt; &lt;a href=&quot;\nhttp://desibbrg.org/images/54406526359265023773.png&quot; rel=&quot;nofollow&quot; target=&quot;_NEW&quot;&gt;\nhttp://desibbrg.org/images/54406526359265023773.png&lt;/a&gt;\n\nMedia Info - \nGeneral\nComplete name : Jatt Airways (2013) DVDScr - Xvid - [1CD] Team IcTv Exclusive.avi\nFormat : AVI\nFormat/Info : Audio Video Interleave\nFile size : 695 MiB\nDuration : 2h 15mn\nOverall bit rate : 720 Kbps\n\nVideo\nFormat : MPEG-4 Visual\nFormat profile : Advanced Simple@L5\nFormat settings, BVOP : 2\nFormat settings, QPel : Yes\nFormat settings, GMC : No warppoints\nFormat settings, Matrix : Default (H.263)\nCodec ID : XVID\nCodec ID/Hint : XviD\nDuration : 2h 15mn\nBit rate : 618 Kbps\nWidth : 640 pixels\nHeight : 272 pixels\nDisplay aspect ratio : 2.35:1\nFrame rate : 23.976 fps\nColor space : YUV\nChroma subsampling : 4:2:0\nBit depth : 8 bits\nScan type : Progressive\nCompression mode : Lossy\nBits/(Pixel*Frame) : 0.148\nStream size : 597 MiB (86%)\nWriting library : XviD 1.2.1 (UTC 2008-12-04)\n\nAudio\nFormat : MPEG Audio\nFormat version : Version 1\nFormat profile : Layer 3\nMode : Joint stereo\nMode extension : MS Stereo\nCodec ID : 55\nCodec ID/Hint : MP3\nDuration : 2h 15mn\nBit rate mode : Constant\nBit rate : 96.0 Kbps\nChannel(s) : 2 channels\nSampling rate : 32.0 KHz\nCompression mode : Lossy\nStream size : 92.7 MiB (13%)\nAlignment : Aligned on interleaves\nInterleave, duration : 167 ms (4.00 video frames)\nInterleave, preload duration : 216 ms\nTitle : VTS_02_1 T80 2_0ch 192Kbps DELAY 0ms\nWriting library : LAME3.99r\nEncoding settings : -m j -V 4 -q 2 -lowpass 15.1 -b 96\n\nRipper : Lottery\n\nSeeding 24x7... Extreme Seeding...\n\n\nEnjoy!\n","torrent":{"xt":"urn:btih:3bb9bc54d00639b1c943964f31d7b380d468561e","amp;dn":"Jatt+Airways+%282013%29+DVDscr+-+Xvid+-+%5B1CD%5D+Tea+IcTv+-+Punjabi","amp;tr":["udp%3A%2F%2Ftracker.openbittorrent.com%3A80","udp%3A%2F%2Fopen.demonii.com%3A1337","udp%3A%2F%2Ftracker.coppersurfer.tk%3A6969","udp%3A%2F%2Fexodus.desync.com%3A6969"],"infoHash":"3bb9bc54d00639b1c943964f31d7b380d468561e","infoHashBuffer":{"type":"Buffer","data":[59,185,188,84,208,6,57,177,201,67,150,79,49,215,179,128,212,104,86,30]},"announce":[],"urlList":[]}}